<svg width="18" height="14" viewBox="0 0 18 14" fill="none" xmlns="http://www.w3.org/2000/svg">
<path d="M1.87498 5.125H3.74996C3.63448 5.125 3.5257 5.07174 3.45448 4.981C3.38321 4.89026 3.35846 4.77175 3.38624 4.65925L3.6195 3.72701C3.74476 3.22526 4.19399 2.875 4.71075 2.875H7.125C7.74526 2.875 8.25 3.37974 8.25 4V4.74999C8.25 4.95699 8.08199 5.125 7.87499 5.125H10.125C9.91799 5.125 9.74998 4.95699 9.74998 4.74999V4C9.74998 3.37974 10.2547 2.875 10.875 2.875H13.2892C13.806 2.875 14.2552 3.22526 14.3805 3.72701L14.6137 4.65925C14.6422 4.77101 14.6167 4.89026 14.5455 4.981C14.4742 5.07174 14.3655 5.125 14.25 5.125H16.125C16.332 5.125 16.5 4.95699 16.5 4.74999V2.49999C16.5 1.4665 15.6585 0.625 14.625 0.625H3.37499C2.3415 0.625 1.5 1.4665 1.5 2.49999V4.74999C1.5 4.95699 1.66798 5.125 1.87498 5.125Z" fill="#A8A8A8"/>
<path d="M16.125 5.875H1.87499C0.8415 5.875 0 6.7165 0 7.74999V13C0 13.207 0.168012 13.375 0.375012 13.375C0.582012 13.375 0.750023 13.207 0.750023 13V11.875H17.25V13C17.25 13.207 17.418 13.375 17.625 13.375C17.832 13.375 18 13.207 18 13V7.74999C18 6.7165 17.1585 5.875 16.125 5.875ZM17.25 11.125H0.749988V10.375H17.25V11.125H17.25Z" fill="black"/>
</svg>
